<?xml version="1.0" encoding="utf-8"?>
<!-- Generator: Adobe Illustrator 23.0.5, SVG Export Plug-In . SVG Version: 6.00 Build 0)  -->
<svg version="1.1" id="Layer_2" xmlns="http://www.w3.org/2000/svg" xmlns:xlink="http://www.w3.org/1999/xlink" x="0px" y="0px"
	 viewBox="0 0 85.4 270.7" style="enable-background:new 0 0 85.4 270.7;" xml:space="preserve">
<style type="text/css">
	.Arched_x0020_Green{fill:url(#SVGID_1_);stroke:#FFFFFF;stroke-width:0.25;stroke-miterlimit:1;}
	.st0{fill:#648290;}
	.st1{fill:#B5D5E5;}
</style>
<linearGradient id="SVGID_1_" gradientUnits="userSpaceOnUse" x1="-127.3809" y1="277.2017" x2="-126.6738" y2="276.4946">
	<stop  offset="0" style="stop-color:#20AC4B"/>
	<stop  offset="0.9831" style="stop-color:#19361A"/>
</linearGradient>
<path class="st0" d="M67.2,38.7c0.8,0.1,1.7,0.2,2.5,0.2c8.6,0,15.6-7,15.6-15.6c0-7-4.6-13-11-14.9c-0.2-0.6-0.2-1.4,0-2l1.5-3.4
	C76.4,1.8,75.8,0,74.6,0H10.5C9.2,0,8.6,1.8,9.1,2.9l1.5,3.5c0.3,0.6,0.3,1.4,0,2C4.5,10.5,0,16.4,0,23.3c0,8.6,7,15.6,15.6,15.6
	c0.6,0,1.2,0,1.7-0.1c0.1,0.1,0.2,0.3,0.3,0.5c0.3,0.7,0.6,2.3,0.6,3.6V235c0,1.3-0.6,3.1-1.4,4.1l-2,2.6c-0.8,1-1.4,2.8-1.4,4.1
	v5.7c0,1.3-0.4,3.2-0.8,4.3c-0.4,1.1-3.3,2.6-4.4,3.3c0,0-3.7,1.3-3.7,5.3c0,1.1,0,4.4,0,4.4c0,1.5,1.6,2,2.9,2h71
	c1.3,0,2.9-0.8,2.9-2c0,0,0-3.2,0-4.4c0-4.1-4.2-5.5-4.2-5.5c-1.1-0.6-4-2-4.4-3.1c-0.4-1.1-0.8-3-0.8-4.3v-5.7
	c0-1.3-0.6-3.1-1.4-4.1l-2-2.6c-0.8-1-1.4-2.8-1.4-4.1V41.5C67,40.4,67.1,39.2,67.2,38.7z"/>
<g>
	<path class="st1" d="M15.4,33.8c-0.4,0-0.8,0-1.2-0.1C8,33,3.6,27.7,4.4,22c1-7.4,6-11.1,15.2-11.1h46.1c9.4,0,14.1,3.4,15.2,11.1
		c0.8,5.8-3.6,11.1-9.8,11.8c-2.5,0.3-4.9-0.3-6.9-1.7c-2-1.4-3.3-3.5-3.6-5.8c-0.3-1.9,0.3-3.8,1.6-5.4c1.3-1.5,3.1-2.5,5.2-2.8
		c3.6-0.4,6.9,1.9,7.4,5.3c0.4,2.8-1.8,5.5-4.8,5.8c-0.9,0.1-1.7-0.5-1.8-1.3c-0.1-0.8,0.5-1.6,1.4-1.7c1.3-0.2,2.2-1.3,2-2.5
		c-0.2-1.7-1.9-2.9-3.7-2.7c-1.2,0.1-2.3,0.7-3,1.6c-0.7,0.9-1.1,2-0.9,3.2c0.2,1.5,1,2.9,2.3,3.8c1.3,0.9,2.9,1.3,4.5,1.1
		c4.4-0.5,7.5-4.3,7-8.4c-0.7-5.2-3-8.4-12-8.4H19.6c-7.6,0-11.1,2.5-12,8.4c-0.6,4.1,2.6,7.9,7,8.4c1.6,0.2,3.2-0.2,4.5-1.1
		c1.3-0.9,2.1-2.3,2.3-3.8c0.2-1.1-0.2-2.3-0.9-3.2c-0.7-0.9-1.8-1.5-3-1.6c-1.8-0.2-3.5,1-3.7,2.7c-0.2,1.2,0.7,2.3,2,2.5
		c0.9,0.1,1.5,0.9,1.4,1.7c-0.1,0.8-0.9,1.4-1.8,1.3c-3.1-0.4-5.2-3-4.8-5.8c0.5-3.4,3.8-5.7,7.4-5.3c2.1,0.2,3.9,1.2,5.2,2.8
		c1.3,1.5,1.8,3.5,1.6,5.4c-0.3,2.3-1.6,4.4-3.6,5.8C19.4,33.2,17.4,33.8,15.4,33.8L15.4,33.8z"/>
	<polygon class="st1" points="70,7.6 14.9,7.6 13.3,3.2 71.6,3.2 	"/>
	<polygon class="st1" points="67,245.4 63,239.8 22.7,239.8 18.3,245.4 	"/>
	<path class="st1" d="M62.5,15.8H22.8c0,0,2.8,1,4.4,4.3H58C59.5,16.8,62.5,15.8,62.5,15.8z"/>
	<path class="st1" d="M58.3,30.4H26.9c-0.6,1.4-1.5,2.1-2.4,2.9h35.7C59.3,32.6,58.7,31.5,58.3,30.4z"/>
	<path class="st1" d="M61.3,35.1h-38c-1.1,1.6-2.5,2.4-3.8,3h46.1C64.1,37.4,62.5,36.6,61.3,35.1z"/>
	<path class="st1" d="M57.3,22H27.8c0.3,1,0.5,2.1,0.5,3.4c0,1.1-0.2,2.1-0.5,3h29.8c-0.4-1-0.6-2.2-0.6-3.5
		C56.9,23.8,57,22.9,57.3,22z"/>
	<g>
		<path class="st1" d="M27.5,234c0,1.2-1,2.2-2.2,2.2l0,0c-1.2,0-2.2-1-2.2-2.2V45.2c0-1.2,1-2.2,2.2-2.2l0,0c1.2,0,2.2,1,2.2,2.2
			V234z"/>
		<path class="st1" d="M36.2,234c0,1.2-1,2.2-2.2,2.2l0,0c-1.2,0-2.2-1-2.2-2.2V45.2c0-1.2,1-2.2,2.2-2.2l0,0c1.2,0,2.2,1,2.2,2.2
			V234z"/>
		<path class="st1" d="M44.9,234c0,1.2-1,2.2-2.2,2.2l0,0c-1.2,0-2.2-1-2.2-2.2V45.2c0-1.2,1-2.2,2.2-2.2l0,0c1.2,0,2.2,1,2.2,2.2
			V234z"/>
		<path class="st1" d="M53.6,234c0,1.2-1,2.2-2.2,2.2l0,0c-1.2,0-2.2-1-2.2-2.2V45.2c0-1.2,1-2.2,2.2-2.2l0,0c1.2,0,2.2,1,2.2,2.2
			V234z"/>
		<path class="st1" d="M62.3,234c0,1.2-1,2.2-2.2,2.2l0,0c-1.2,0-2.2-1-2.2-2.2V45.2c0-1.2,1-2.2,2.2-2.2l0,0c1.2,0,2.2,1,2.2,2.2
			V234z"/>
	</g>
	<rect x="18.3" y="247.4" class="st1" width="48.6" height="4.3"/>
	<polygon class="st1" points="69.6,258.1 15.7,258.1 18.3,253.8 66.9,253.8 	"/>
	<path class="st1" d="M76.9,265.1c0-2.7-1.7-4.9-3.9-4.9H12.4c-2.1,0-3.9,2.2-3.9,4.9c0,0.6,0.1,1.1,0.2,1.6h68
		C76.8,266.2,76.9,265.7,76.9,265.1z"/>
</g>
</svg>
