<?xml version="1.0" standalone="no"?>
<svg xmlns="http://www.w3.org/2000/svg" height="225pt" preserveAspectRatio="xMidYMid meet" viewBox="0 0 1920 225" width="1920pt">
  <path d="m1220 2239c-372-31-688-238-849-557-51-101-87-222-136-462-67-322-102-424-188-552l-45-67 90-77c88-75 89-76 109-58 32 28 115 168 148 249 44 105 74 217 121 446 23 112 55 245 71 294 89 280 307 469 609 531 122 24 314 15 433-20 305-91 477-290 503-581 23-271-185-567-432-615-51-10-71-9-125 4-114 29-232 133-261 228-10 35-10 45 8 76 23 42 58 70 100 78 29 6 33 3 53-40 59-121 197-177 311-125 134 61 211 189 213 354 2 228-124 390-358 462-89 27-311 24-420-5-166-45-331-145-425-258-113-134-200-416-200-646 0-416 272-739 721-858 118-31 392-39 529-16 267 47 518 176 705 363 188 188 259 348 345 778 23 115 51 239 62 275 82 267 273 451 548 530 106 31 308 38 419 16 294-60 502-238 565-482 20-79 21-232 1-308-68-260-317-464-519-427-73 13-122 39-189 101-60 55-97 118-97 168 0 55 91 135 134 119 8-3 24-23 35-44 28-56 101-120 153-133 127-35 263 42 330 187 43 91 50 219 19 321-65 216-261 342-531 342-210 0-449-90-598-225-143-129-252-431-252-699 0-191 38-330 130-469 121-186 330-328 577-394 134-35 395-44 541-18 266 47 495 162 680 339 201 193 281 362 362 766 50 249 71 331 109 414 108 239 329 402 604 446 96 16 287 8 377-15 36-9 112-39 169-67 178-85 295-224 341-404 38-149 19-311-53-449-42-80-174-213-247-248-152-74-282-52-408 67-89 84-113 156-73 222 18 30 74 64 105 64 8 0 23-15 32-32 32-63 75-107 130-134 47-23 63-26 114-21 160 14 289 181 290 374 1 231-157 417-396 468-187 40-426-3-614-108-101-57-215-171-263-263-43-83-89-217-113-329-25-118-23-325 5-430 27-105 97-244 162-323 140-173 379-300 641-342 125-20 389-8 516 24 357 90 663 321 810 611 45 89 95 261 138 470 66 327 90 401 162 515 77 121 170 204 308 271 143 70 255 93 429 86 216-8 378-68 524-194 152-131 231-377 187-577-41-183-167-350-320-422-67-32-89-37-150-38-59 0-82 5-137 30-68 32-158 113-186 168-43 83 1 173 94 192 29 6 33 3 52-34 32-63 71-103 126-128 212-99 442 149 396 428-44 268-270 423-591 405-229-13-439-104-581-253-90-96-147-215-195-408-120-487 97-910 555-1083 139-52 207-65 391-70 136-4 196-1 270 11 318 56 625 235 800 468 123 163 175 301 250 662 27 132 61 274 74 313 87 256 270 427 541 505 69 20 103 23 240 23s171-3 240-23c220-64 378-186 459-357 45-94 60-162 59-275-1-217-127-430-312-529-86-45-163-57-242-37-107 28-201 102-250 197-36 72-9 142 68 175 47 20 50 19 84-36 82-133 201-173 327-110 73 37 115 82 156 170 26 56 31 79 34 165 3 83 0 111-18 164-75 223-279 341-565 328-301-14-570-166-682-384-50-96-97-238-119-358-22-121-15-319 16-425 50-175 174-347 326-456 87-62 231-128 349-160 135-36 390-45 541-20 114 20 274 70 366 117 254 127 469 345 564 570 47 111 75 217 124 459 22 112 54 245 71 295 84 253 260 420 526 502 80 25 102 27 253 27 176 0 231-9 354-61 199-83 347-248 391-435 19-80 19-227 1-296-35-131-126-271-227-346-162-122-338-120-475 6-126 115-137 222-29 279 51 27 68 22 94-29 24-47 71-96 115-120s160-23 206 2c159 85 236 285 185 481-22 84-60 147-126 210-111 106-254 151-449 142-294-14-566-165-680-378-36-69-93-237-115-344-25-119-23-297 4-410 82-339 359-585 748-664 126-26 359-29 484-6 262 48 492 164 677 339 101 96 164 182 223 301 59 123 86 216 144 495 77 374 114 459 260 606 80 81 103 98 195 142 153 73 214 87 400 87s247-14 399-87c88-42 116-62 180-126 192-193 235-465 113-712-46-95-170-224-252-263-154-74-283-52-411 70-66 63-89 104-89 162 0 33 6 47 34 75 43 42 95 57 111 31 42-73 77-113 118-139 225-138 490 156 412 459-36 136-125 246-251 305-226 108-574 63-808-104-158-113-255-283-312-546-25-116-25-328 0-425 90-347 359-583 756-665 92-19 127-21 285-17 149 4 197 9 281 30 388 99 702 351 838 674 40 96 72 217 122 457 25 122 57 255 70 296 90 270 308 456 603 516 123 24 315 16 434-20 304-91 482-296 503-581 20-279-188-573-436-617-114-20-245 38-330 145-56 70-68 114-44 163 22 44 56 71 100 80 30 6 33 3 55-41 31-61 97-119 154-135 208-58 406 180 366 441-42 266-270 423-591 406-136-7-240-35-370-99-89-44-118-65-190-138-97-96-130-152-183-310-199-589 61-1083 652-1237 118-31 352-42 482-24 188 27 376 94 525 187 88 54 243 181 267 217 15 23 14 25-45 77-34 30-74 65-90 78l-29 25-57-55c-190-183-425-282-702-295-330-15-621 117-751 342-55 95-74 176-73 315 1 137 16 208 75 360 27 71 43 95 93 146 199 198 595 232 713 61 37-53 45-163 15-217-11-19-24-35-30-35s-25 21-41 47c-35 56-98 104-155 119-59 16-155 6-219-24-147-67-236-213-224-365 14-177 207-390 410-454 104-33 254-31 355 5 112 39 178 83 282 187 101 101 141 160 195 287 105 244 81 542-61 770-138 221-375 375-662 429-110 21-314 20-424 0-349-66-617-267-758-570-50-107-70-178-125-444-81-395-131-511-288-665-126-122-293-216-475-264-86-24-116-27-272-27-140 0-188 3-240 18-287 80-467 239-526 467-21 80-21 239 0 334 20 96 71 233 106 288 53 85 181 165 320 203 87 24 258 24 319 0 103-39 154-109 155-212 0-91-51-169-73-110-15 38-80 105-125 129-63 34-191 31-268-5-116-54-196-156-219-280-23-126 27-251 151-377 298-304 740-233 1009 162 154 227 186 548 79 806-155 373-571 597-1040 560-316-25-616-191-778-429-104-154-146-271-215-610-76-371-127-490-270-635-133-135-299-231-490-282-91-24-116-27-275-27-206 0-276 15-429 90-77 38-110 62-176 128-92 92-127 151-155 262-37 144-23 307 41 492 53 154 121 228 270 296 101 46 168 60 279 60 113 1 179-19 238-69 52-45 77-115 68-189-5-47-30-96-52-103-5-1-21 20-37 47-48 87-149 136-262 127-119-9-235-87-296-199-32-60-34-68-34-163 0-92 3-105 33-169 48-102 178-229 292-285 240-118 502-60 720 160 167 168 253 371 254 604 1 438-298 780-767 876-124 25-333 28-448 5-341-66-619-276-755-571-45-97-78-216-120-425-50-253-78-352-134-466-148-305-517-514-905-514-481 0-803 285-782 690 7 138 59 321 117 415 93 151 373 261 575 226 155-27 234-115 223-248-7-80-58-143-72-88-11 44-95 120-155 140-154 51-349-42-428-203-25-50-28-68-28-152 0-88 3-100 34-165 44-89 177-226 266-271 106-55 160-69 275-68 87 0 118 4 181 26 118 41 195 92 294 192 262 265 327 647 166 981-167 348-565 549-1018 514-373-30-683-230-846-547-59-114-89-212-137-450-84-408-126-515-266-662s-305-245-502-297c-85-23-117-26-267-27-185-1-255 11-385 64-188 77-320 213-377 384-61 188-12 505 104 670 99 140 366 240 555 208 90-16 163-55 197-106 35-53 42-164 13-215-26-48-38-49-61-4s-72 93-121 119c-26 14-57 19-120 19-76 0-93-4-151-32-80-39-150-111-187-191-23-48-27-71-27-143 0-78 3-91 37-160 70-142 224-275 371-321 105-34 254-31 355 4 264 94 468 340 528 637 22 110 15 283-16 391-93 330-376 572-754 645-116 23-336 21-451-4-386-82-659-321-779-679-19-60-54-200-76-313-23-112-52-242-65-289-32-111-102-250-164-327-115-140-335-276-536-330-91-24-116-27-275-27-205 0-277 15-425 88-146 73-238 162-300 291-42 89-55 152-55 271 0 155 53 355 122 459 54 82 186 165 318 201 87 24 258 24 319 0 103-39 155-109 155-211 1-59-24-124-49-131-6-2-25 21-43 50-103 162-331 168-487 12-116-116-142-274-70-421 52-106 176-227 293-285 353-175 779 59 938 515 26 75 28 91 29 245 0 197-11 246-87 400-46 93-63 116-153 205-202 202-444 297-755 297-435 0-791-215-964-583-52-110-80-211-135-484-58-284-97-396-186-520-126-175-337-311-588-378-70-18-108-21-257-21-206 0-277 15-430 90-77 39-109 62-175 128-135 136-181 261-172 466 6 127 34 242 89 362s167 206 338 259c104 32 260 32 342 0 102-40 156-127 145-234-4-45-30-97-53-104-5-1-21 19-36 46-80 145-271 173-435 64-58-38-97-84-134-153-20-39-24-59-24-145 0-94 2-105 34-170 52-106 179-229 291-283 135-65 248-77 382-43 270 69 490 303 570 606 44 164 23 396-51 559-136 300-453 506-824 535-534 41-978-245-1127-726-11-37-43-175-70-307-63-309-96-406-176-528-92-138-279-284-449-349-163-63-214-72-405-73-153-1-186 2-258 22-224 61-385 180-468 347-88 179-83 387 17 645 27 71 43 95 93 146 68 67 168 123 276 151 76 20 235 23 295 5 108-31 175-115 175-219 0-53-30-133-49-133-5 0-21 20-35 44-99 169-326 181-491 25-136-128-152-315-41-482 49-74 151-168 228-210 107-59 160-72 283-71 97 0 119 4 191 31 197 74 358 228 453 435 61 130 76 202 75 358 0 164-16 234-84 375-57 118-133 213-233 293-210 166-490 245-787 221z" transform="matrix(.1 0 0 -.1 0 225)" fill="#000000" stroke="none" stroke-width="2" vector-effect="non-scaling-stroke"/>
</svg>
